<svg width="155" height="41" viewBox="0 0 155 41" fill="none" xmlns="http://www.w3.org/2000/svg">
<path d="M 5.7219 31.6043 l 3.7701 0 l -1.8717 -15.348 Z M 0.9893 40.0535 l 3.3422 -27.193 l -0.66845 -0.80214 l 7.139 0 l 3.4492 27.995 l -3.7166 0 l -0.50802 -4.2246 l -5.9091 -0.026738 l 0.9893 0.7754 l -0.42781 3.4759 l -3.6898 0 Z M 19.1711 23.048 l 5.2406 -11.043 l 4.1176 0 l -6.6845 14.011 l 6.6845 14.011 l -4.1176 0 l -5.2406 -11.043 l 0 11.016 l -3.6898 0 l 0 -26.925 l -0.85561 -1.0695 l 4.5455 0 l 0 11.043 Z M 40.6151 14.679 l 0 7.1658 l -3.6631 0 l 0 -5.5882 l -5.4011 0 l 1.0695 0.82888 l 0 18.717 l 4.3316 0 l 0 -11.07 l -1.0963 -0.82888 l 4.7594 0 l 0 16.123 l -9.0107 0 c -1.4973 0 -2.6471 -1.1497 -2.6471 -2.6471 l 0 -22.701 c 0 -1.4171 1.1497 -2.6471 2.6471 -2.6471 l 6.3636 0 c 1.4973 0 2.6471 1.2299 2.6471 2.6471 Z" fill="white"/>
</svg>
